<svg version="1.2" xmlns="http://www.w3.org/2000/svg" viewBox="0 0 223 30" width="223" height="30">
	<title>Artboard-svg</title>
	<style>
		.s0 { fill: #ff5e5b } 
		.s1 { fill: #ffffff } 
	</style>
	<g id="Artboard">
		<rect id="Rectangle" class="s0" width="223" height="30" rx="8"></rect>
		<g id="Group">
			<path id="Rectangle-2" fill-rule="evenodd" class="s1" d="m43 7c3.1 0 5.6 2.5 5.6 5.6v0.3c0 3.1-2.5 5.7-5.6 5.7h-1.6v1.6c0 1.5-1.1 2.6-2.6 2.6h-12.2c-1.4 0-2.6-1.1-2.6-2.6v-11.9c0-0.7 0.6-1.3 1.3-1.3zm-1.6 3v5.6h1.5c1.5 0 2.7-1.3 2.7-2.8 0-1.6-1.2-2.8-2.7-2.8z"/>
			<path id="Path-2" class="s0" d="m32.4 12.3q0.6-1.8 2.8-1.8c2.3 0 3.1 2.8 1.9 4.6q-1.2 1.9-4.7 4.7-3.6-2.8-4.8-4.7c-1.2-1.8-0.3-4.6 1.9-4.6q2.3 0 2.9 1.8z"/>
		</g>
		<path id="在 Ko-fi 上贊助我們" class="s1" aria-label="在 Ko-fi 上贊助我們"  d="m68.3 16.6h3.1v-1.8h-3.1v-2.6h-1.9v2.6h-3.3v1.8h3.3v3.6h-3.9v1.8h9.6v-1.8h-3.8zm-4-6.9c0.3-0.6 0.5-1.1 0.6-1.7l-2-0.5c-0.2 0.7-0.4 1.5-0.7 2.2h-4.3v1.8h3.5c-1 1.9-2.3 3.5-4 4.6 0.3 0.5 0.7 1.4 0.9 1.9 0.6-0.4 1-0.7 1.5-1.1v5.5h1.9v-7.7c0.7-1 1.3-2.1 1.9-3.2h8.5v-1.8zm13.8 11.3h2.3v-3.3l1.6-2 3.1 5.3h2.6l-4.3-7.1 3.6-4.7h-2.6l-3.9 5.1h-0.1v-5.1h-2.3zm14.3 0.2c2.2 0 4.3-1.7 4.3-4.7 0-3-2.1-4.7-4.3-4.7-2.3 0-4.4 1.7-4.4 4.7 0 3 2.1 4.7 4.4 4.7zm0-1.9c-1.3 0-2-1.1-2-2.8 0-1.7 0.7-2.8 2-2.8 1.2 0 1.9 1.1 1.9 2.8 0 1.7-0.7 2.8-1.9 2.8zm5.8-2.1h4.4v-1.6h-4.4zm6.8 3.7h2.3v-7.1h1.7v-1.8h-1.7v-0.8c0-1 0.4-1.4 1.1-1.4 0.3 0 0.7 0 1 0.2l0.4-1.8c-0.4-0.1-1-0.3-1.7-0.3-2.2 0-3.1 1.5-3.1 3.3v0.8l-1.2 0.1v1.7h1.2zm5.5 0h2.4v-9h-2.4zm1.2-10.4c0.8 0 1.4-0.5 1.4-1.2 0-0.8-0.6-1.3-1.4-1.3-0.8 0-1.3 0.5-1.3 1.3 0 0.7 0.5 1.2 1.3 1.2zm14.6 9.1v-5.5h5.6v-1.9h-5.6v-4.6h-2.1v12h-5.7v2h14.6v-2zm12.1-1.4h6.9v0.7h-6.9zm0-4.4c0.3-0.2 0.8-0.3 3.1-0.8 0-0.1 0-0.2 0-0.3 0.3 0.3 0.6 0.7 0.8 1.1zm6.8 1.7h-6.8v-0.6h6.8zm0 1.7h-6.8v-0.7h6.8zm-7.6-7.7v0.7h-1.8c0.2-0.3 0.3-0.5 0.5-0.7zm7 0v0.7h-1.8c0.2-0.3 0.3-0.5 0.5-0.7zm2.6 10.4v-6.1h-4.8c1.6-0.6 2.2-1.3 2.4-2.5h0.7v0.9c0 1.1 0.2 1.5 1.4 1.5h1c0.8 0 1.1-0.3 1.3-1.5-0.4-0.1-1-0.3-1.3-0.5 0 0.7 0 0.8-0.3 0.8h-0.4c-0.2 0-0.2 0-0.2-0.4v-0.8h1.9v-1.1h-2.8v-0.7h2.3v-1.2h-2.3v-1h-1.5v1h-0.8c0.1-0.2 0.2-0.4 0.2-0.6l-1.3-0.2c-0.2 0.6-0.5 1.4-1.1 2 0.4 0.1 0.8 0.4 1.1 0.7h-0.8v1.1h1.4c-0.2 0.6-0.7 1-1.8 1.3 0-0.3 0-0.6 0.1-0.8l-1.6 0.3v-0.8h1.5v-1.1h-2.4v-0.7h2v-1.2h-2v-1h-1.5v1h-0.8c0.1-0.2 0.1-0.4 0.2-0.6l-1.3-0.2c-0.2 0.6-0.5 1.4-1 2 0.3 0.1 0.8 0.4 1.1 0.7h-1.2v1.1h1.6c-0.2 0.8-0.7 1.4-1.9 1.7 0.3 0.3 0.7 0.9 0.9 1.2 1.6-0.6 2.3-1.6 2.5-2.9h0.8v0.3c0 0.7-0.4 0.9-0.6 1.1 0.1 0.2 0.4 0.6 0.4 0.9l0.1 0.2h-1.9v6.1h2.2c-1.2 0.5-2.8 0.9-4.3 1.1 0.4 0.3 1.1 1 1.4 1.3 1.6-0.4 3.7-1 5-1.8l-1.2-0.6h4.2l-1.2 0.8c1.7 0.5 3.4 1.2 4.3 1.6l2.1-0.9c-1-0.4-2.7-1-4.2-1.5zm5.8-3.6h2.1v1.5c-0.8 0.2-1.5 0.3-2.1 0.5zm2.1-6.6v1.6h-2.1v-1.6zm0 4.9h-2.1v-1.7h2.1zm9.6-3.8h-3.5c0-1.1 0-2.3 0-3.5h-1.8c0 1.3 0 2.4 0 3.5h-2.1v1.8h2c-0.1 2.5-0.5 4.5-1.6 6.2l-0.2-1.5-0.7 0.1v-9.4h-5.5v10.6c-0.4 0-0.8 0.1-1.1 0.2l0.3 1.9c1.9-0.4 4.6-1.1 7-1.7-0.5 0.7-1.1 1.3-1.9 1.8 0.5 0.4 1.1 1 1.3 1.5 3.1-2.1 4-5.5 4.2-9.7h1.7c-0.1 5.1-0.2 7.1-0.6 7.5-0.1 0.3-0.3 0.3-0.5 0.3-0.4 0-1.1 0-1.9-0.1 0.3 0.5 0.5 1.3 0.6 1.8 0.8 0.1 1.6 0.1 2.1 0 0.6-0.1 1-0.3 1.4-0.8 0.5-0.8 0.6-3.1 0.8-9.7zm16.1-0.4c-0.5-0.8-1.5-1.8-2.4-2.6l-1.4 1c0.8 0.8 1.8 1.9 2.2 2.7zm-2 3.8c-0.4 0.8-0.9 1.5-1.5 2.2-0.2-0.8-0.4-1.7-0.5-2.7h4.2v-1.8h-4.4c-0.1-1.4-0.2-2.9-0.1-4.4h-2c0 1.5 0 3 0.2 4.4h-3.1v-2.2c0.9-0.2 1.8-0.4 2.6-0.6l-1.3-1.6c-1.6 0.5-4.1 1-6.3 1.3 0.2 0.5 0.4 1.2 0.5 1.6 0.8-0.1 1.7-0.2 2.6-0.3v1.8h-3.1v1.8h3.1v2.1c-1.3 0.3-2.5 0.4-3.4 0.6l0.5 1.9c0.8-0.2 1.8-0.4 2.9-0.6v2.4c0 0.2-0.1 0.3-0.4 0.3-0.3 0-1.2 0-2.1 0 0.2 0.5 0.6 1.4 0.6 1.9 1.3 0 2.3-0.1 2.9-0.4 0.7-0.3 0.9-0.8 0.9-1.8v-2.8l2.6-0.5-0.2-1.7c-0.8 0.1-1.6 0.3-2.4 0.4v-1.8h3.2c0.2 1.6 0.5 3 0.8 4.3-1.1 0.9-2.3 1.7-3.5 2.2 0.4 0.5 1 1.1 1.2 1.6 1.1-0.5 2.1-1.2 3-2 0.7 1.6 1.6 2.6 2.8 2.6 1.4 0 2-0.7 2.3-3.5-0.5-0.3-1.1-0.7-1.6-1.1 0 1.9-0.2 2.6-0.6 2.6-0.4 0-0.9-0.7-1.4-1.9 1.1-1.1 2-2.3 2.7-3.6zm11.1-4.5v0.9h-1.3v-0.9zm-1.3 3.2v-1h1.3v1zm2.7-4.7h-4.5l0.1-0.3-1.7-0.5c-0.7 2.4-1.9 4.7-3.2 6.2 0.3 0.5 0.8 1.6 0.9 2 0.3-0.4 0.7-0.8 1-1.3v8h1.8v-11.3c0.4-0.9 0.8-1.8 1.1-2.7v14h1.8v-8h2.7zm2.2 4.7v-1h1.5v1zm1.4-3.2v0.9h-1.4v-0.9zm1.8-1.5h-4.8v6.1h3v5.8c0 0.3-0.1 0.4-0.4 0.4-0.4 0-1.5 0-2.4 0 0.2 0.4 0.5 1.3 0.6 1.8 1.5 0 2.5-0.1 3.1-0.4 0.7-0.2 0.9-0.7 0.9-1.8z"/>
	</g>
</svg>