<svg version="1.2" xmlns="http://www.w3.org/2000/svg" viewBox="0 0 223 30" width="223" height="30">
	<title>Artboard-svg</title>
	<style>
		.s0 { fill: #ff5e5b } 
		.s1 { fill: #ffffff } 
	</style>
	<g id="Artboard">
		<rect id="Rectangle" class="s0" width="223" height="30" rx="8"></rect>
		<g id="Group">
			<path id="Rectangle-2" fill-rule="evenodd" class="s1" d="m43 7c3.1 0 5.6 2.5 5.6 5.6v0.3c0 3.1-2.5 5.7-5.6 5.7h-1.6v1.6c0 1.5-1.1 2.6-2.6 2.6h-12.2c-1.4 0-2.6-1.1-2.6-2.6v-11.9c0-0.7 0.6-1.3 1.3-1.3zm-1.6 3v5.6h1.5c1.5 0 2.7-1.3 2.7-2.8 0-1.6-1.2-2.8-2.7-2.8z"/>
			<path id="Path-2" class="s0" d="m32.4 12.3q0.6-1.8 2.8-1.8c2.3 0 3.1 2.8 1.9 4.6q-1.2 1.9-4.7 4.7-3.6-2.8-4.8-4.7c-1.2-1.8-0.3-4.6 1.9-4.6q2.3 0 2.9 1.8z"/>
		</g>
		<path id="Support us on Ko-fi " class="s1" aria-label="Support us on Ko-fi "  d="m62.2 16.2q0 1.4-1 2.2-1 0.7-2.7 0.7-1.6 0-2.9-0.6v-1.9q0.8 0.3 1.5 0.5 0.8 0.3 1.5 0.3 0.8 0 1.1-0.3 0.4-0.3 0.4-0.8 0-0.4-0.3-0.6-0.2-0.3-0.7-0.5-0.4-0.2-1-0.5-0.3-0.2-0.7-0.4-0.4-0.2-0.8-0.6-0.4-0.3-0.6-0.8-0.2-0.5-0.2-1.2 0-1.3 0.9-2.1 0.9-0.7 2.4-0.7 0.8 0 1.5 0.1 0.7 0.2 1.5 0.6l-0.7 1.6q-0.7-0.3-1.2-0.4-0.6-0.2-1.1-0.2-0.6 0-1 0.3-0.3 0.3-0.3 0.7 0 0.6 0.5 0.9 0.5 0.3 1.4 0.7 0.8 0.4 1.3 0.8 0.6 0.4 0.9 0.9 0.3 0.5 0.3 1.3zm6.5-4.8h2.1v7.6h-1.6l-0.3-1h-0.1q-0.3 0.6-1 0.9-0.6 0.2-1.3 0.2-1.3 0-2-0.6-0.7-0.7-0.7-2.2v-4.9h2v4.4q0 0.8 0.3 1.3 0.3 0.4 1 0.4 0.9 0 1.3-0.7 0.3-0.6 0.3-1.8zm8.6-0.2q1.2 0 2 1 0.8 1 0.8 3 0 1.9-0.8 2.9-0.8 1-2.1 1-0.8 0-1.3-0.3-0.5-0.3-0.8-0.6h-0.1q0.1 0.5 0.1 1.1v3.1h-2.1v-11h1.7l0.3 0.9h0.1q0.3-0.4 0.8-0.7 0.5-0.4 1.4-0.4zm-0.7 1.7q-0.8 0-1.2 0.5-0.3 0.5-0.3 1.5v0.2q0 1.2 0.3 1.8 0.3 0.5 1.2 0.5 0.7 0 1.1-0.5 0.3-0.6 0.3-1.8 0-2.2-1.4-2.2zm9.5-1.7q1.3 0 2.1 1 0.8 1 0.8 3 0 1.9-0.8 2.9-0.8 1-2.1 1-0.9 0-1.4-0.3-0.4-0.3-0.7-0.6h-0.2q0.2 0.5 0.2 1.1v3.1h-2.1v-11h1.7l0.3 0.9h0.1q0.3-0.4 0.8-0.7 0.5-0.4 1.3-0.4zm-0.6 1.7q-0.9 0-1.2 0.5-0.3 0.5-0.3 1.5v0.2q0 1.2 0.3 1.8 0.3 0.5 1.2 0.5 0.7 0 1-0.5 0.4-0.6 0.4-1.8 0-2.2-1.4-2.2zm12.2 2.3q0 1.9-1 2.9-1 1-2.8 1-1 0-1.9-0.4-0.8-0.5-1.3-1.4-0.4-0.9-0.4-2.1 0-1.9 1-3 1-1 2.7-1 1.1 0 1.9 0.5 0.8 0.4 1.3 1.3 0.5 0.9 0.5 2.2zm-5.3 0q0 1.1 0.4 1.7 0.3 0.6 1.2 0.6 0.8 0 1.2-0.6 0.3-0.6 0.3-1.7 0-1.2-0.3-1.7-0.4-0.6-1.2-0.6-0.9 0-1.2 0.6-0.4 0.5-0.4 1.7zm11.3-4q0.1 0 0.3 0 0.2 0 0.4 0.1l-0.2 1.9q-0.1 0-0.3 0-0.2 0-0.3 0-0.5 0-1 0.2-0.5 0.1-0.8 0.6-0.3 0.4-0.3 1.1v3.9h-2.1v-7.6h1.6l0.3 1.2h0.1q0.3-0.5 0.9-1 0.6-0.4 1.4-0.4zm5.3 6.3q0.3 0 0.6-0.1 0.4-0.1 0.7-0.2v1.6q-0.3 0.1-0.9 0.2-0.4 0.1-1 0.1-0.7 0-1.3-0.2-0.5-0.2-0.8-0.8-0.3-0.5-0.3-1.5v-3.7h-1v-0.9l1.1-0.7 0.6-1.6h1.4v1.7h2.1v1.5h-2.1v3.7q0 0.4 0.2 0.7 0.3 0.2 0.7 0.2zm11.4-6.1h2.1v7.6h-1.6l-0.3-1h-0.1q-0.4 0.6-1 0.9-0.6 0.2-1.4 0.2-1.2 0-1.9-0.6-0.8-0.7-0.8-2.2v-4.9h2.1v4.4q0 0.8 0.3 1.3 0.3 0.4 0.9 0.4 1 0 1.3-0.7 0.4-0.6 0.4-1.8zm9.6 5.3q0 1.2-0.8 1.8-0.8 0.6-2.5 0.6-0.8 0-1.3-0.1-0.6-0.1-1.2-0.3v-1.7q0.6 0.2 1.3 0.4 0.8 0.2 1.3 0.2 0.6 0 0.9-0.2 0.2-0.2 0.2-0.4 0-0.2-0.1-0.4-0.1-0.2-0.4-0.3-0.4-0.2-1.1-0.6-0.7-0.3-1.2-0.6-0.4-0.3-0.7-0.7-0.2-0.4-0.2-1.1 0-1 0.8-1.6 0.9-0.5 2.2-0.5 0.7 0 1.4 0.2 0.6 0.1 1.3 0.4l-0.6 1.5q-0.6-0.2-1.1-0.4-0.5-0.1-1-0.1-0.9 0-0.9 0.5 0 0.1 0.1 0.3 0.1 0.1 0.4 0.3 0.4 0.2 1.1 0.4 0.6 0.3 1.1 0.6 0.5 0.3 0.7 0.7 0.3 0.5 0.3 1.1zm12.2-1.5q0 1.9-1 2.9-1 1-2.7 1-1.1 0-1.9-0.4-0.8-0.5-1.3-1.4-0.5-0.9-0.5-2.1 0-1.9 1-3 1-1 2.7-1 1.1 0 1.9 0.5 0.9 0.4 1.3 1.3 0.5 0.9 0.5 2.2zm-5.3 0q0 1.1 0.4 1.7 0.4 0.6 1.2 0.6 0.8 0 1.2-0.6 0.4-0.6 0.4-1.7 0-1.2-0.4-1.7-0.4-0.6-1.2-0.6-0.8 0-1.2 0.6-0.4 0.5-0.4 1.7zm11.4-4q1.2 0 1.9 0.7 0.8 0.6 0.8 2.1v5h-2.1v-4.5q0-0.8-0.3-1.2-0.3-0.4-0.9-0.4-1 0-1.3 0.6-0.4 0.7-0.4 1.9v3.6h-2.1v-7.6h1.6l0.3 0.9h0.1q0.4-0.6 1-0.8 0.7-0.3 1.4-0.3zm13.2 2.2l3.5 5.6h-2.4l-2.7-4.2-0.9 0.6v3.6h-2.1v-10h2.1v4.6q0.3-0.3 0.5-0.6 0.2-0.3 0.4-0.6l2.7-3.4h2.3zm11.6 1.7q0 1.9-1 3-1 1-2.7 1-1.1 0-1.9-0.4-0.9-0.5-1.3-1.4-0.5-0.9-0.5-2.2 0-1.9 1-2.9 1-1 2.7-1 1.1 0 1.9 0.5 0.8 0.4 1.3 1.3 0.5 0.9 0.5 2.1zm-5.3 0q0 1.2 0.4 1.8 0.4 0.5 1.2 0.5 0.8 0 1.2-0.5 0.4-0.6 0.4-1.8 0-1.1-0.4-1.7-0.4-0.5-1.2-0.5-0.8 0-1.2 0.5-0.4 0.6-0.4 1.7zm10 1h-3.7v-1.7h3.7zm5.7-4.8v1.6h-1.8v6.1h-2v-6.1h-1.2v-1l1.2-0.6v-0.5q0-1 0.3-1.6 0.3-0.5 0.9-0.7 0.6-0.2 1.5-0.2 0.6 0 1.1 0.1 0.5 0.1 0.8 0.2l-0.6 1.5q-0.2-0.1-0.5-0.1-0.3-0.1-0.6-0.1-0.4 0-0.7 0.3-0.2 0.2-0.2 0.6v0.5zm2.3-3q0.4 0 0.8 0.2 0.3 0.3 0.3 0.8 0 0.6-0.3 0.8-0.4 0.3-0.8 0.3-0.5 0-0.8-0.3-0.3-0.2-0.3-0.8 0-0.5 0.3-0.8 0.3-0.2 0.8-0.2zm-1.1 3h2.1v7.7h-2.1z"/>
	</g>
</svg>